<svg role="img" xmlns="http://www.w3.org/2000/svg" viewBox="0 0 512 512">

  <symbol id="icon-backward" viewBox="0 0 512 512">
    <path
      d="M 79.923421,241.56979 204.69712,131.69827 c 13.38718,-11.74252 34.11781,-1.92275 34.11781,16.89274 v 219.74305 c 0,18.8155 -20.73063,28.70394 -34.11781,16.89275 L 79.923421,275.35529 c -9.9429,-8.78972 -9.9429,-24.99577 0,-33.7855 z m 166.364939,0 124.77369,-109.87152 c 13.38718,-11.74252 34.11781,-1.92275 34.11781,16.89274 v 219.74305 c 0,18.8155 -20.73063,28.70394 -34.11781,16.89275 L 246.28836,275.35529 c -9.94291,-8.78972 -9.94291,-24.99577 0,-33.7855 z"
    />
    <path
      d="m 505.84173,259.06957 c 0,-137 -111,-247.999999 -248,-247.999999 -137,0 -247.9999993,110.999999 -247.9999993,247.999999 0,137 110.9999993,248 247.9999993,248 137,0 248,-111 248,-248 z m -447.999999,0 c 0,-110.5 89.499999,-199.999999 199.999999,-199.999999 110.5,0 200,89.499999 200,199.999999 0,110.5 -89.5,200 -200,200 -110.5,0 -199.999999,-89.5 -199.999999,-200 z"
    />
  </symbol>

  <symbol id="icon-play" viewBox="0 0 512 512">
    <path
      d="M371.7 238l-176-107c-15.8-8.8-35.7 2.5-35.7 21v208c0 18.4 19.8 29.8 35.7 21l176-101c16.4-9.1 16.4-32.8 0-42zM504 256C504 119 393 8 256 8S8 119 8 256s111 248 248 248 248-111 248-248zm-448 0c0-110.5 89.5-200 200-200s200 89.5 200 200-89.5 200-200 200S56 366.5 56 256z" />
  </symbol>

  <symbol id="icon-pause" viewBox="0 0 512 512">
    <path
      d="M256 8C119 8 8 119 8 256s111 248 248 248 248-111 248-248S393 8 256 8zm0 448c-110.5 0-200-89.5-200-200S145.5 56 256 56s200 89.5 200 200-89.5 200-200 200zm96-280v160c0 8.8-7.2 16-16 16h-48c-8.8 0-16-7.2-16-16V176c0-8.8 7.2-16 16-16h48c8.8 0 16 7.2 16 16zm-112 0v160c0 8.8-7.2 16-16 16h-48c-8.8 0-16-7.2-16-16V176c0-8.8 7.2-16 16-16h48c8.8 0 16 7.2 16 16z" />
  </symbol>

  <symbol id="icon-stop" viewBox="0 0 512 512">
    <path
      d="M504 256C504 119 393 8 256 8S8 119 8 256s111 248 248 248 248-111 248-248zm-448 0c0-110.5 89.5-200 200-200s200 89.5 200 200-89.5 200-200 200S56 366.5 56 256zm296-80v160c0 8.8-7.2 16-16 16H176c-8.8 0-16-7.2-16-16V176c0-8.8 7.2-16 16-16h160c8.8 0 16 7.2 16 16z" />
  </symbol>

  <symbol id="icon-forward" viewBox="0 0 512 512">
    <path
      d="M 435.76004,241.56979 310.98634,131.69827 c -13.38718,-11.74252 -34.11781,-1.92275 -34.11781,16.89274 v 219.74305 c 0,18.8155 20.73063,28.70394 34.11781,16.89275 l 124.7737,-109.87152 c 9.9429,-8.78972 9.9429,-24.99577 0,-33.7855 z m -166.36494,0 -124.77369,-109.87152 c -13.38718,-11.74252 -34.11781,-1.92275 -34.11781,16.89274 v 219.74305 c 0,18.8155 20.73063,28.70394 34.11781,16.89275 L 269.3951,275.35529 c 9.94291,-8.78972 9.94291,-24.99577 0,-33.7855 z"
    />
    <path
      d="m 257.84173,11.069572 c -137,0 -248.0000006,110.999998 -248.0000006,247.999998 0,137 111.0000006,248 248.0000006,248 137,0 248,-111 248,-248 0,-137 -111,-247.999998 -248,-247.999998 z m 0,447.999998 c -110.5,0 -200.000001,-89.5 -200.000001,-200 0,-110.5 89.500001,-199.999998 200.000001,-199.999998 110.5,0 200,89.499998 200,199.999998 0,110.5 -89.5,200 -200,200 z"
    />
  </symbol>

  <symbol id="icon-volume-mute" viewBox="0 0 512 512">
    <path
       d="m 505.84173,259.06957 c 0,-137 -111,-247.999999 -248,-247.999999 -137,0 -247.9999993,110.999999 -247.9999993,247.999999 0,137 110.9999993,248 247.9999993,248 137,0 248,-111 248,-248 z m -447.999999,0 c 0,-110.5 89.499999,-199.999999 199.999999,-199.999999 110.5,0 200,89.499999 200,199.999999 0,110.5 -89.5,200 -200,200 -110.5,0 -199.999999,-89.5 -199.999999,-200 z"/>
    <path
       d="m 235.1933,153.08787 -51.84618,49.13187 h -59.47423 c -7.72711,0 -13.98572,5.93229 -13.98572,13.25651 v 79.53895 c 0,7.3187 6.25861,13.2565 13.98572,13.2565 h 59.47423 l 51.84618,49.13187 c 8.75859,8.30189 23.87473,2.46904 23.87473,-9.37343 V 162.46132 c 0,-11.85351 -15.12788,-17.66428 -23.87473,-9.37345 z m 143.70893,102.15785 26.5963,-25.20943 c 3.6712,-3.47982 3.6712,-9.12488 0,-12.60471 l -13.2981,-12.60471 c -3.6713,-3.47984 -9.6269,-3.47984 -13.2982,0 l -26.5961,25.20942 -26.5962,-25.20942 c -3.6711,-3.47984 -9.6267,-3.47984 -13.2981,0 l -13.298,12.60471 c -3.6713,3.47983 -3.6713,9.12489 0,12.60471 l 26.5961,25.20943 -26.5903,25.20392 c -3.6712,3.47983 -3.6712,9.12487 0,12.60471 l 13.2981,12.60472 c 3.6712,3.47983 9.6269,3.47983 13.2981,0 l 26.5903,-25.20392 26.5961,25.20945 c 3.6713,3.47983 9.6269,3.47983 13.2982,0 l 13.2981,-12.60473 c 3.6712,-3.47983 3.6712,-9.12489 0,-12.60472 z" />
  </symbol>

  <symbol id="icon-volume-max" viewBox="0 0 512 512">
    <path
       d="m 505.84173,259.06957 c 0,-137 -111,-247.999999 -248,-247.999999 -137,0 -247.9999993,110.999999 -247.9999993,247.999999 0,137 110.9999993,248 247.9999993,248 137,0 248,-111 248,-248 z m -447.999999,0 c 0,-110.5 89.499999,-199.999999 199.999999,-199.999999 110.5,0 200,89.499999 200,199.999999 0,110.5 -89.5,200 -200,200 -110.5,0 -199.999999,-89.5 -199.999999,-200 z" />
    <path
       d="m 214.4418,154.29118 -51.41911,49.36164 h -58.98431 c -7.663465,0 -13.870515,5.96002 -13.870515,13.31849 v 79.91091 c 0,7.35292 6.20705,13.31849 13.870515,13.31849 h 58.98431 l 51.41911,49.36161 c 8.6864,8.34076 23.67811,2.48056 23.67811,-9.41728 V 163.70846 c 0,-11.90895 -15.00326,-17.74689 -23.67811,-9.41728 z M 349.28621,125.945 c -6.45556,-4.06769 -15.13041,-2.35294 -19.3667,3.85681 -4.24206,6.19865 -2.43889,14.52825 4.01667,18.59594 38.29996,24.13421 61.15731,64.70564 61.15731,108.53456 0,43.82893 -22.85735,84.40039 -61.15731,108.53453 -6.45556,4.0622 -8.25873,12.39731 -4.01667,18.59041 4.06869,5.94336 12.67418,8.0799 19.3667,3.85686 46.18875,-29.11202 73.77371,-78.0852 73.77371,-130.98735 0,-52.90214 -27.58496,-101.86977 -73.77371,-130.98176 z m 18.29175,130.98176 c 0,-35.25514 -18.52871,-67.66901 -49.56974,-86.70334 -6.46712,-3.96226 -15.04371,-2.11986 -19.14129,4.13982 -4.09758,6.25969 -2.1846,14.5449 4.28252,18.5127 22.97302,14.08985 36.68747,38.02983 36.68747,64.05082 0,26.021 -13.71445,49.96098 -36.68747,64.05083 -6.46712,3.96225 -8.3801,12.24748 -4.28252,18.5127 3.76237,5.74915 12.20604,8.40176 19.14129,4.1398 31.04103,-19.03431 49.56974,-51.44263 49.56974,-86.70333 z m -81.93425,-42.658 c -6.69251,-3.51275 -15.13618,-1.19866 -18.84654,5.24415 -3.69302,6.44282 -1.24834,14.53935 5.46151,18.09649 7.46117,3.93451 12.09623,11.34292 12.09623,19.31736 0,7.97999 -4.63506,15.38286 -12.09045,19.31736 -6.70985,3.55715 -9.15453,11.65368 -5.46151,18.09649 3.71614,6.47057 12.16558,8.76801 18.84654,5.24416 16.31519,-8.62927 26.45221,-24.97216 26.45221,-42.66355 0,-17.6914 -10.13702,-34.02874 -26.45799,-42.65246 z"
    />
  </symbol>
</svg>
